<?xml version="1.0" encoding="UTF-8" standalone="no"?>
<svg
   version="1.1"
   width="20"
   height="20"
   viewBox="0 0 20 20"
   xml:space="preserve"
   id="svg2"
   xmlns="http://www.w3.org/2000/svg"
   xmlns:svg="http://www.w3.org/2000/svg">

<defs
   id="defs1" />
<g
   style="opacity:1;fill:none;fill-rule:nonzero;stroke:none;stroke-width:0;stroke-linecap:butt;stroke-linejoin:miter;stroke-miterlimit:10;stroke-dasharray:none"
   transform="scale(0.22222222)"
   id="g2">
	<path
   d="m 45,90 v 0 C 69.853,90 90,69.853 90,45 v 0 C 90,20.147 69.853,0 45,0 V 0 C 20.147,0 0,20.147 0,45 v 0 c 0,24.853 20.147,45 45,45 z"
   style="opacity:1;fill:#008cff;fill-rule:nonzero;stroke:none;stroke-width:1;stroke-linecap:butt;stroke-linejoin:miter;stroke-miterlimit:10;stroke-dasharray:none"
   stroke-linecap="round"
   id="path1" />
	<path
   d="m 65.03,22.015 c 1.75,2.88 2.539,5.846 2.539,9.593 0,11.951 -10.238,27.476 -18.548,38.378 H 30.042 L 22.431,24.632 39.049,23.06 43.073,55.332 c 3.76,-6.104 8.401,-15.697 8.401,-22.238 0,-3.58 -0.616,-6.018 -1.577,-8.026 z"
   style="opacity:1;fill:#ffffff;fill-rule:nonzero;stroke:none;stroke-width:1;stroke-linecap:butt;stroke-linejoin:miter;stroke-miterlimit:10;stroke-dasharray:none"
   stroke-linecap="round"
   id="path2" />
</g>
</svg>
